PathFileType	4	(X/Y/Z)	C:\Users\86182\Documents\cortex\Trimmed_M3_H1.trc
DataRate	CameraRate	NumFrames	NumMarkers	Units	OrigDataRate	OrigDataStartFrame	OrigNumFrames
100.00	100.00	       154	2	mm	100.00	361	       901
Frame#	Time	gripper			box			
		X1	Y1	Z1	X2	Y2	Z2	

361	3.600	268.94458	172.77463	291.20563	268.23621	170.16893	155.27769	
362	3.610	269.03644	172.73708	291.39624	268.24576	170.17389	155.45665	
363	3.620	269.00171	172.78171	291.61957	268.25146	170.17590	155.61160	
364	3.630	268.86945	172.88670	291.85986	268.25220	170.17493	155.74631	
365	3.640	268.69720	173.01242	292.08838	268.24677	170.17148	155.86212	
366	3.650	268.52756	173.13028	292.28290	268.23569	170.16650	155.95920	
367	3.660	268.38138	173.22774	292.43326	268.22067	170.16124	156.03801	
368	3.670	268.26633	173.30182	292.53897	268.20377	170.15686	156.10001	
369	3.680	268.18207	173.35419	292.60590	268.18729	170.15378	156.14702	
370	3.690	268.12433	173.38818	292.64294	268.17349	170.15164	156.18059	
371	3.700	268.08746	173.40773	292.65927	268.16373	170.14981	156.20239	
372	3.710	268.06641	173.41660	292.66254	268.15802	170.14783	156.21472	
373	3.720	268.05698	173.41821	292.65851	268.15570	170.14561	156.22026	
374	3.730	268.05588	173.41536	292.65118	268.15579	170.14337	156.22148	
375	3.740	268.06046	173.41002	292.64307	268.15735	170.14142	156.22043	
376	3.750	268.06882	173.40346	292.63550	268.15961	170.13997	156.21857	
377	3.760	268.07965	173.39644	292.62927	268.16217	170.13910	156.21686	
378	3.770	268.09177	173.38956	292.62460	268.16476	170.13876	156.21588	
379	3.780	268.10403	173.38344	292.62170	268.16727	170.13884	156.21579	
380	3.790	268.11526	173.37857	292.62061	268.16940	170.13914	156.21649	
381	3.800	268.12448	173.37511	292.62106	268.17078	170.13947	156.21758	
382	3.810	268.13110	173.37253	292.62234	268.17068	170.13948	156.21831	
383	3.820	268.13492	173.36966	292.62311	268.16809	170.13882	156.21762	
384	3.830	268.13544	173.36487	292.62140	268.16165	170.13708	156.21404	
385	3.840	268.13116	173.35675	292.61493	268.14990	170.13377	156.20578	
386	3.850	268.11929	173.34454	292.60129	268.13156	170.12854	156.19104	
387	3.860	268.09625	173.32845	292.57831	268.10629	170.12129	156.16841	
388	3.870	268.05945	173.30939	292.54437	268.07520	170.11240	156.13756	
389	3.880	268.00900	173.28896	292.49921	268.04041	170.10281	156.09956	
390	3.890	267.94867	173.26883	292.44473	268.00464	170.09387	156.05688	
391	3.900	267.88434	173.25029	292.38528	267.97098	170.08679	156.01294	
392	3.910	267.82184	173.23395	292.32666	267.94220	170.08229	155.97153	
393	3.920	267.76514	173.21977	292.27438	267.92020	170.07988	155.93579	
394	3.930	267.71609	173.20757	292.23233	267.90610	170.07716	155.90720	
395	3.940	267.67551	173.19746	292.20215	267.90152	170.07025	155.88568	
396	3.950	267.64426	173.19012	292.18390	267.90790	170.05562	155.87019	
397	3.960	267.62320	173.18626	292.17651	267.92493	170.03268	155.85965	
398	3.970	267.61221	173.18590	292.17755	267.94925	170.00450	155.85321	
399	3.980	267.60916	173.18800	292.18365	267.97522	169.97604	155.85033	
400	3.990	267.61047	173.19083	292.19125	267.99799	169.95134	155.85020	
401	4.000	267.61246	173.19261	292.19751	268.01514	169.93207	155.85173	
402	4.010	267.61249	173.19234	292.20090	268.02625	169.91862	155.85388	
403	4.020	267.60983	173.19003	292.20126	268.03156	169.91138	155.85603	
404	4.030	267.60541	173.18669	292.19943	268.03195	169.91060	155.85773	
405	4.040	267.60098	173.18353	292.19653	268.02927	169.91533	155.85837	
406	4.050	267.59824	173.18135	292.19336	268.02603	169.92319	155.85747	
407	4.060	267.59787	173.18024	292.19022	268.02402	169.93127	155.85510	
408	4.070	267.59955	173.17998	292.18732	268.02322	169.93759	155.85228	
409	4.080	267.60239	173.18037	292.18518	268.02219	169.94205	155.85043	
410	4.090	267.60556	173.18159	292.18439	268.01938	169.94612	155.85056	
411	4.100	267.60870	173.18388	292.18530	268.01413	169.95163	155.85258	
412	4.110	267.61142	173.18706	292.18784	268.00720	169.95895	155.85562	
413	4.120	267.61298	173.19032	292.19131	268.00064	169.96634	155.85832	
414	4.130	267.61255	173.19279	292.19476	267.99692	169.97064	155.85956	
415	4.140	267.60980	173.19391	292.19739	267.99789	169.96928	155.85870	
416	4.150	267.60541	173.19366	292.19901	268.00375	169.96202	155.85596	
417	4.160	267.60071	173.19258	292.19977	268.01291	169.95094	155.85210	
418	4.170	267.59735	173.19144	292.20020	268.02332	169.93893	155.84793	
419	4.180	267.59634	173.19095	292.20068	268.03290	169.92867	155.84409	
420	4.190	267.59775	173.19148	292.20148	268.04010	169.92174	155.84102	
421	4.200	267.60098	173.19286	292.20248	268.04416	169.91841	155.83905	
422	4.210	267.60495	173.19458	292.20343	268.04535	169.91789	155.83829	
423	4.220	267.60873	173.19626	292.20416	268.04465	169.91920	155.83847	
424	4.230	267.61200	173.19772	292.20459	268.04306	169.92177	155.83920	
425	4.240	267.61505	173.19884	292.20462	268.04111	169.92540	155.83998	
426	4.250	267.61819	173.19936	292.20404	268.03900	169.93015	155.84041	
427	4.260	267.62079	173.19897	292.20270	268.03674	169.93556	155.84035	
428	4.270	267.62143	173.19737	292.20071	268.03458	169.94016	155.84001	
429	4.280	267.61899	173.19446	292.19843	268.03290	169.94182	155.83995	
430	4.290	267.61356	173.19072	292.19650	268.03195	169.93938	155.84084	
431	4.300	267.60666	173.18718	292.19574	268.03122	169.93381	155.84323	
432	4.310	267.60071	173.18503	292.19675	268.03006	169.92760	155.84709	
433	4.320	267.59787	173.18501	292.19946	268.02838	169.92297	155.85168	
434	4.330	267.59927	173.18700	292.20285	268.02704	169.92065	155.85556	
435	4.340	267.60452	173.19005	292.20563	268.02744	169.91988	155.85713	
436	4.350	267.61185	173.19299	292.20682	268.03036	169.91948	155.85555	
437	4.360	267.61890	173.19498	292.20596	268.03546	169.91888	155.85109	
438	4.370	267.62393	173.19568	292.20337	268.04144	169.91847	155.84483	
439	4.380	267.62653	173.19536	292.19977	268.04691	169.91885	155.83820	
440	4.390	267.62741	173.19455	292.19604	268.05093	169.92012	155.83247	
441	4.400	267.62750	173.19371	292.19312	268.05316	169.92181	155.82866	
442	4.410	267.62711	173.19313	292.19153	268.05331	169.92358	155.82751	
443	4.420	267.62552	173.19293	292.19174	268.05081	169.92532	155.82961	
444	4.430	267.62201	173.19310	292.19385	268.04510	169.92723	155.83495	
445	4.440	267.61670	173.19360	292.19733	268.03619	169.92978	155.84283	
446	4.450	267.61078	173.19440	292.20148	268.02490	169.93346	155.85197	
447	4.460	267.60577	173.19553	292.20563	268.01315	169.93816	155.86072	
448	4.470	267.60324	173.19688	292.20892	268.00302	169.94327	155.86751	
449	4.480	267.60397	173.19826	292.21072	267.99594	169.94818	155.87129	
450	4.490	267.60745	173.19931	292.21060	267.99258	169.95219	155.87170	
451	4.500	267.61227	173.19968	292.20850	267.99307	169.95439	155.86893	
452	4.510	267.61685	173.19926	292.20496	267.99716	169.95418	155.86357	
453	4.520	267.62054	173.19827	292.20090	268.00400	169.95178	155.85669	
454	4.530	267.62378	173.19717	292.19736	268.01215	169.94812	155.84973	
455	4.540	267.62711	173.19633	292.19501	268.02036	169.94395	155.84398	
456	4.550	267.63028	173.19591	292.19400	268.02783	169.93932	155.84018	
457	4.560	267.63235	173.19563	292.19415	268.03433	169.93385	155.83853	
458	4.570	267.63245	173.19524	292.19525	268.03998	169.92752	155.83865	
459	4.580	267.63034	173.19476	292.19724	268.04474	169.92094	155.83987	
460	4.590	267.62659	173.19438	292.20001	268.04813	169.91504	155.84164	
461	4.600	267.62219	173.19431	292.20343	268.04938	169.91083	155.84392	
462	4.610	267.61823	173.19458	292.20691	268.04810	169.90909	155.84657	
463	4.620	267.61548	173.19524	292.21002	268.04489	169.91000	155.84911	
464	4.630	267.61432	173.19618	292.21222	268.04111	169.91301	155.85057	
465	4.640	267.61465	173.19719	292.21326	268.03790	169.91753	155.85019	
466	4.650	267.61603	173.19800	292.21298	268.03537	169.92361	155.84795	
467	4.660	267.61823	173.19856	292.21155	268.03293	169.93159	155.84456	
468	4.670	267.62152	173.19920	292.20938	268.03021	169.94106	155.84100	
469	4.680	267.62625	173.20021	292.20697	268.02747	169.95065	155.83810	
470	4.690	267.63196	173.20163	292.20483	268.02521	169.95851	155.83638	
471	4.700	267.63742	173.20316	292.20325	268.02390	169.96315	155.83617	
472	4.710	267.64120	173.20445	292.20239	268.02353	169.96399	155.83742	
473	4.720	267.64249	173.20529	292.20245	268.02390	169.96146	155.83978	
474	4.730	267.64139	173.20567	292.20340	268.02472	169.95634	155.84277	
475	4.740	267.63882	173.20578	292.20526	268.02582	169.94939	155.84593	
476	4.750	267.63586	173.20576	292.20776	268.02713	169.94128	155.84894	
477	4.760	267.63330	173.20558	292.21027	268.02890	169.93291	155.85153	
478	4.770	267.63116	173.20506	292.21210	268.03140	169.92496	155.85344	
479	4.780	267.62949	173.20419	292.21307	268.03506	169.91771	155.85422	
480	4.790	267.62854	173.20319	292.21332	268.04010	169.91122	155.85342	
481	4.800	267.62885	173.20253	292.21320	268.04630	169.90587	155.85089	
482	4.810	267.63086	173.20268	292.21307	268.05280	169.90253	155.84697	
483	4.820	267.63483	173.20380	292.21301	268.05841	169.90210	155.84242	
484	4.830	267.64038	173.20546	292.21277	268.06210	169.90491	155.83810	
485	4.840	267.64633	173.20706	292.21185	268.06329	169.91034	155.83475	
486	4.850	267.65112	173.20807	292.21017	268.06198	169.91716	155.83279	
487	4.860	267.65344	173.20828	292.20813	268.05872	169.92386	155.83228	
488	4.870	267.65295	173.20781	292.20636	268.05417	169.92935	155.83301	
489	4.880	267.65015	173.20706	292.20547	268.04898	169.93332	155.83463	
490	4.890	267.64587	173.20634	292.20581	268.04352	169.93593	155.83684	
491	4.900	267.64096	173.20586	292.20737	268.03781	169.93776	155.83961	
492	4.910	267.63577	173.20546	292.20978	268.03140	169.93971	155.84326	
493	4.920	267.63034	173.20488	292.21234	268.02383	169.94261	155.84798	
494	4.930	267.62463	173.20387	292.21436	268.01553	169.94649	155.85333	
495	4.940	267.61932	173.20236	292.21521	268.00797	169.95027	155.85838	
496	4.950	267.61566	173.20061	292.21460	268.00302	169.95255	155.86191	
497	4.960	267.61508	173.19905	292.21252	268.00229	169.95241	155.86282	
498	4.970	267.61850	173.19800	292.20935	268.00641	169.94968	155.86064	
499	4.980	267.62564	173.19749	292.20547	268.01474	169.94484	155.85580	
500	4.990	267.63495	173.19739	292.20148	268.02542	169.93877	155.84947	
501	5.000	267.64417	173.19745	292.19794	268.03635	169.93224	155.84300	
502	5.010	267.65109	173.19753	292.19525	268.04584	169.92583	155.83752	
503	5.020	267.65442	173.19756	292.19379	268.05270	169.92039	155.83391	
504	5.030	267.65402	173.19780	292.19391	268.05627	169.91666	155.83269	
505	5.040	267.65079	173.19856	292.19583	268.05640	169.91484	155.83403	
506	5.050	267.64563	173.19989	292.19943	268.05338	169.91475	155.83766	
507	5.060	267.63931	173.20149	292.20425	268.04767	169.91614	155.84303	
508	5.070	267.63251	173.20296	292.20953	268.03973	169.91890	155.84959	
509	5.080	267.62640	173.20406	292.21439	268.03036	169.92310	155.85663	
510	5.090	267.62234	173.20479	292.21808	268.02121	169.92847	155.86298	
511	5.100	267.62128	173.20523	292.22009	268.01447	169.93396	155.86722	
512	5.110	267.62314	173.20535	292.22015	268.01205	169.93817	155.86812	
513	5.120	267.62720	173.20517	292.21820	268.01495	169.93994	155.86513	
514	5.130	267.63242	173.20479	292.21463	268.02261	169.93883	155.85869	
